<svg width="222" height="169" viewBox="0 0 222 169" fill="none" xmlns="http://www.w3.org/2000/svg">
<path d="M50.4005 59.09L41.9857 63.1418L129.621 161.236L138.036 157.184L50.4005 59.09Z" fill="#FFFAFA"/>
<path d="M30.3672 22.1745L49.8362 43.9672C50.2133 44.3892 50.3465 44.9039 50.2066 45.398C50.0667 45.8921 49.6652 46.3252 49.0904 46.602C48.5155 46.8788 47.8144 46.9766 47.1414 46.8739C46.4683 46.7712 45.8784 46.4765 45.5014 46.0544L23.1194 21.0012C20.0813 20.8149 17.0277 21.1831 14.2304 22.073L38.6165 49.3695C38.9933 49.7915 39.1264 50.3061 38.9864 50.8002C38.8464 51.2942 38.445 51.7272 37.8702 52.0039C37.2955 52.2806 36.5946 52.3785 35.9216 52.2759C35.2487 52.1733 34.6588 51.8786 34.2817 51.4568L9.89551 24.1602C7.66927 25.6893 5.99262 27.5988 5.01486 29.7187L27.3969 54.7719C27.7736 55.1939 27.9067 55.7085 27.7667 56.2025C27.6268 56.6965 27.2253 57.1295 26.6506 57.4063C26.0758 57.683 25.3749 57.7808 24.702 57.6782C24.029 57.5756 23.4391 57.281 23.062 56.8592L3.59296 35.0666C3.09291 41.1429 5.79144 48.3449 11.7055 54.9648C22.697 67.2681 40.6264 72.8992 51.7518 67.5422C62.8773 62.1852 62.9859 47.8687 51.9944 35.5654C46.0803 28.9455 38.1578 24.2589 30.3672 22.1745Z" fill="#FFFAFA"/>
<path d="M88.1291 45.6705H78.0659V162.981H88.1291V45.6705Z" fill="#FFFAFA"/>
<path d="M82.9451 53.2823C96.25 53.2823 107.036 41.3546 107.036 26.6411C107.036 11.9276 96.25 0 82.9451 0C69.6402 0 58.8544 11.9276 58.8544 26.6411C58.8544 41.3546 69.6402 53.2823 82.9451 53.2823Z" fill="#FFFAFA"/>
<path d="M82.9451 48.561C93.8921 48.561 102.766 38.7472 102.766 26.6411C102.766 14.5351 93.8921 4.72121 82.9451 4.72121C71.998 4.72121 63.1236 14.5351 63.1236 26.6411C63.1236 38.7472 71.998 48.561 82.9451 48.561Z" fill="#CCCCCC"/>
<path d="M111 169C172.304 169 222 166.907 222 164.324C222 161.742 172.304 159.649 111 159.649C49.6964 159.649 0 161.742 0 164.324C0 166.907 49.6964 169 111 169Z" fill="#FFFAFA"/>
<path d="M176.645 164.256C135.046 158.751 92.4425 158.751 50.8441 164.256C50.1834 164.344 49.5043 164.324 48.855 164.198C48.2057 164.072 47.6019 163.843 47.0862 163.528C46.5706 163.212 46.1556 162.817 45.8706 162.37C45.5856 161.924 45.4375 161.437 45.4368 160.944V119.102H182.052V160.944C182.051 161.437 181.903 161.924 181.618 162.37C181.333 162.817 180.918 163.212 180.403 163.528C179.887 163.843 179.283 164.072 178.634 164.198C177.985 164.324 177.306 164.344 176.645 164.256V164.256Z" fill="white"/>
<path d="M169.549 88.2068C166.395 88.2047 163.262 88.5895 160.281 89.3455C155.932 82.4204 148.982 76.5497 140.248 72.4224C131.514 68.295 121.358 66.0822 110.971 66.0437C100.584 66.0052 90.3976 68.1425 81.6072 72.2048C72.8167 76.2672 65.787 82.0861 61.343 88.9785C56.967 88.0773 52.36 87.9613 47.9103 88.6404C43.4605 89.3195 39.2982 90.7738 35.774 92.8807C32.2497 94.9876 29.4668 97.6854 27.6597 100.747C25.8525 103.808 25.074 107.144 25.3898 110.473C25.7055 113.801 27.1063 117.025 29.474 119.873C31.8418 122.721 35.1072 125.11 38.9952 126.838C42.8832 128.566 47.2799 129.583 51.8149 129.802C56.35 130.022 60.8905 129.438 65.0541 128.101C70.0584 133.699 76.8935 138.288 84.9352 141.447C92.9769 144.607 101.969 146.238 111.09 146.189C120.21 146.141 129.169 144.416 137.148 141.172C145.127 137.927 151.872 133.267 156.766 127.616C160.589 129.033 164.8 129.796 169.083 129.848C173.365 129.899 177.608 129.238 181.493 127.914C185.378 126.589 188.803 124.636 191.513 122.201C194.222 119.765 196.146 116.911 197.138 113.852C198.13 110.793 198.166 107.609 197.242 104.539C196.319 101.468 194.46 98.5913 191.805 96.1236C189.15 93.6559 185.769 91.6617 181.915 90.2905C178.06 88.9194 173.833 88.207 169.549 88.2068V88.2068Z" fill="white"/>
<path d="M56.4148 106.117H55.8049C55.7841 100.156 57.5812 94.2666 61.0644 88.8817L61.6156 89.0734C58.1712 94.3984 56.3941 100.222 56.4148 106.117V106.117Z" fill="#DCD9FF"/>
<path d="M165.585 106.117H164.975C164.994 100.358 163.298 94.6653 160.007 89.4379L160.56 89.2503C163.889 94.5365 165.604 100.293 165.585 106.117V106.117Z" fill="#DCD9FF"/>
<path d="M45.5104 138.572L45.3633 138.137C45.5354 138.106 62.8681 134.981 88.2691 133.43C111.714 131.999 147.028 131.654 182.127 138.138L181.978 138.572C146.965 132.104 111.728 132.448 88.3325 133.876C62.9769 135.423 45.682 138.541 45.5104 138.572Z" fill="#DCD9FF"/>
<path d="M45.5104 144.617L45.3633 144.182C45.5354 144.151 62.8681 141.026 88.2691 139.475C111.714 138.044 147.028 137.698 182.127 144.182L181.978 144.617C146.965 138.149 111.728 138.493 88.3325 139.92C62.9769 141.468 45.682 144.585 45.5104 144.617Z" fill="#DCD9FF"/>
<path d="M45.5104 150.661L45.3633 150.227C45.5354 150.195 62.8681 147.07 88.2691 145.519C111.714 144.088 147.028 143.743 182.127 150.227L181.978 150.661C146.965 144.193 111.728 144.538 88.3325 145.965C62.9769 147.512 45.682 150.63 45.5104 150.661Z" fill="#DCD9FF"/>
<path d="M157.738 117.793L150.349 115.949L157.442 89.3685L152.566 89.043C147.81 91.7215 141.478 92.7716 133.355 91.9723L146.359 106.402L139.728 109.838L118.575 91.2104C117.621 90.3708 117.099 89.3122 117.099 88.2191C117.099 87.2057 117.548 86.2197 118.378 85.41C119.208 84.6003 120.374 84.0107 121.701 83.7302L144.29 78.9533L170.742 81.1231C174.742 85.5993 174.898 88.7124 168.81 89.6104L157.738 117.793Z" fill="#2F2E41"/>
<path d="M150.175 128.133C149.412 128.098 148.67 127.931 148.011 127.645C147.351 127.36 146.793 126.964 146.381 126.491C145.969 126.017 145.715 125.479 145.64 124.92C145.564 124.361 145.67 123.797 145.947 123.273L149.62 116.338C151.486 113.743 154.047 114.068 157.071 116.338L158.549 119.521C158.671 119.783 158.719 120.06 158.691 120.336C158.663 120.612 158.559 120.881 158.386 121.127L154.805 126.209C154.371 126.825 153.702 127.335 152.88 127.677C152.058 128.019 151.118 128.177 150.175 128.133V128.133Z" fill="#2F2E41"/>
<path d="M140.626 119.053C139.862 119.017 139.121 118.85 138.461 118.564C137.802 118.279 137.244 117.883 136.832 117.41C136.42 116.936 136.166 116.398 136.091 115.839C136.015 115.28 136.12 114.716 136.398 114.192L140.071 107.257C141.937 104.662 144.498 104.987 147.522 107.257L149 110.44C149.121 110.702 149.17 110.979 149.142 111.255C149.114 111.531 149.01 111.8 148.837 112.046L145.256 117.128C144.822 117.744 144.153 118.254 143.331 118.596C142.509 118.938 141.569 119.096 140.626 119.053Z" fill="#2F2E41"/>
<path d="M145.325 53.5663C149.895 53.5663 153.6 50.8462 153.6 47.4908C153.6 44.1354 149.895 41.4153 145.325 41.4153C140.754 41.4153 137.049 44.1354 137.049 47.4908C137.049 50.8462 140.754 53.5663 145.325 53.5663Z" fill="#FFB9B9"/>
<path d="M158.181 56.0617L146.802 60.4013L144.438 52.5898L152.27 49.0096L158.181 56.0617Z" fill="#FFB9B9"/>
<path d="M171.925 82.208C160.57 79.6903 150.268 78.3858 142.812 80.3637C145.382 75.056 140.639 66.951 135.423 58.6654C137.674 56.5057 141.262 55.6692 145.325 55.3021C149.77 57.6717 152.869 56.1508 155.226 52.4814C160.365 52.3299 165.318 53.6661 170.151 55.9531C166.373 64.8378 167.053 73.5867 171.925 82.208Z" fill="#DCD9FF"/>
<path d="M142.665 81.6656C140.872 82.4414 139.217 83.7483 137.64 85.3543C134.975 84.1568 132.63 82.7934 130.783 81.1716C129.49 80.0219 128.608 78.6533 128.218 77.19C127.828 75.7268 127.941 74.2152 128.548 72.7922L133.598 60.7429C134.017 59.7421 134.832 58.8553 135.939 58.1951L136.606 57.7975L143.256 67.0192L136.606 76.1325C137.449 77.7925 139.934 79.7098 142.665 81.6656Z" fill="#DCD9FF"/>
<path d="M144.953 90.8524C144.351 91.0542 143.692 91.1502 143.03 91.1329C142.368 91.1155 141.72 90.9853 141.138 90.7525C140.556 90.5197 140.056 90.1908 139.678 89.7916C139.299 89.3925 139.052 88.9341 138.956 88.4527L137.857 82.9287L141.699 81.4099L146.576 86.0964C146.965 86.4707 147.235 86.9047 147.364 87.366C147.494 87.8274 147.481 88.3042 147.325 88.7612C147.169 89.2181 146.875 89.6434 146.464 90.0055C146.054 90.3675 145.537 90.657 144.953 90.8524V90.8524Z" fill="#FFB9B9"/>
<path d="M153.674 47.2249L152.261 47.2557L148.342 43.1796C143.319 43.5607 139.204 45.1626 135.721 47.6164L135.368 45.8881C135.032 44.24 135.568 42.5599 136.867 41.1932C138.166 39.8266 140.129 38.8773 142.352 38.5408H142.352C143.52 38.364 144.725 38.3619 145.893 38.5344C147.062 38.7069 148.172 39.0506 149.156 39.5449C150.14 40.0393 150.978 40.6741 151.621 41.4116C152.263 42.149 152.697 42.9739 152.895 43.8371L153.674 47.2249Z" fill="#2F2E41"/>
<path d="M137.783 85.3565C137.508 84.9139 137.377 84.4304 137.401 83.9442C137.424 83.4581 137.602 82.9827 137.919 82.5555C138.236 82.1284 138.684 81.7613 139.228 81.4833C139.771 81.2052 140.396 81.0239 141.051 80.9536L148.576 80.1467L150.645 82.9675L144.261 86.5474C143.751 86.8334 143.16 87.0313 142.532 87.1265C141.903 87.2217 141.254 87.2117 140.631 87.0973C140.009 86.9829 139.429 86.7669 138.936 86.4656C138.443 86.1642 138.049 85.7851 137.783 85.3565V85.3565Z" fill="#FFB9B9"/>
<path d="M173.358 80.3317C166.2 80.7398 158.384 82.3787 150.201 84.7033C150.1 82.9201 149.219 81.2083 147.689 79.8212C155.121 78.3842 161.864 76.6978 166.014 74.0712L163.501 60.1843L168.969 55.6276L169.912 55.9889C170.696 56.2877 171.385 56.704 171.935 57.2109C172.485 57.7179 172.883 58.304 173.105 58.9313C175.413 65.5242 176.439 71.841 175.734 77.7856C175.825 78.3492 175.634 78.9179 175.197 79.3862C174.761 79.8544 174.107 80.1904 173.358 80.3317V80.3317Z" fill="#DCD9FF"/>
<path d="M29.2399 163.006C22.5823 166.063 15.9246 166.062 9.26689 163.002C9.05613 162.907 8.88496 162.771 8.77199 162.609C8.65902 162.448 8.60858 162.266 8.62612 162.085L10.7035 142.259H27.5062L29.8795 162.078C29.9 162.261 29.8511 162.445 29.7382 162.608C29.6253 162.772 29.4528 162.91 29.2399 163.006V163.006Z" fill="#DCD9FF"/>
<path d="M19.0273 144.726C23.71 144.726 27.5061 143.721 27.5061 142.483C27.5061 141.244 23.71 140.24 19.0273 140.24C14.3446 140.24 10.5485 141.244 10.5485 142.483C10.5485 143.721 14.3446 144.726 19.0273 144.726Z" fill="#DCD9FF"/>
<path d="M25.6731 141.726C21.255 144.007 16.978 144.007 12.842 141.726V138.137H25.6731V141.726Z" fill="white"/>
<path d="M19.2576 139.931C22.8008 139.931 25.6731 139.128 25.6731 138.137C25.6731 137.146 22.8008 136.343 19.2576 136.343C15.7144 136.343 12.842 137.146 12.842 138.137C12.842 139.128 15.7144 139.931 19.2576 139.931Z" fill="white"/>
<path d="M19.5631 138.137C19.9005 138.137 20.1741 138.037 20.1741 137.913C20.1741 137.789 19.9005 137.689 19.5631 137.689C19.2256 137.689 18.9521 137.789 18.9521 137.913C18.9521 138.037 19.2256 138.137 19.5631 138.137Z" fill="#FFFAFA"/>
<path d="M22.4482 138.137C22.7857 138.137 23.0592 138.037 23.0592 137.913C23.0592 137.789 22.7857 137.689 22.4482 137.689C22.1108 137.689 21.8372 137.789 21.8372 137.913C21.8372 138.037 22.1108 138.137 22.4482 138.137Z" fill="#FFFAFA"/>
<path d="M21.0057 138.667C21.3431 138.667 21.6167 138.566 21.6167 138.442C21.6167 138.319 21.3431 138.218 21.0057 138.218C20.6682 138.218 20.3947 138.319 20.3947 138.442C20.3947 138.566 20.6682 138.667 21.0057 138.667Z" fill="#FFFAFA"/>
<path d="M15.2354 138.667C15.5729 138.667 15.8464 138.566 15.8464 138.442C15.8464 138.319 15.5729 138.218 15.2354 138.218C14.898 138.218 14.6244 138.319 14.6244 138.442C14.6244 138.566 14.898 138.667 15.2354 138.667Z" fill="#FFFAFA"/>
<path d="M16.678 138.137C17.0154 138.137 17.289 138.037 17.289 137.913C17.289 137.789 17.0154 137.689 16.678 137.689C16.3405 137.689 16.067 137.789 16.067 137.913C16.067 138.037 16.3405 138.137 16.678 138.137Z" fill="#FFFAFA"/>
<path d="M18.1205 138.931C18.458 138.931 18.7315 138.831 18.7315 138.707C18.7315 138.583 18.458 138.483 18.1205 138.483C17.7831 138.483 17.5095 138.583 17.5095 138.707C17.5095 138.831 17.7831 138.931 18.1205 138.931Z" fill="#FFFAFA"/>
<path d="M213.732 163.006C207.074 166.063 200.416 166.062 193.759 163.002C193.548 162.907 193.377 162.771 193.264 162.609C193.151 162.448 193.1 162.266 193.118 162.085L195.195 142.259H211.998L214.371 162.078C214.392 162.261 214.343 162.445 214.23 162.608C214.117 162.772 213.945 162.91 213.732 163.006V163.006Z" fill="#DCD9FF"/>
<path d="M203.519 144.726C208.202 144.726 211.998 143.721 211.998 142.483C211.998 141.244 208.202 140.24 203.519 140.24C198.836 140.24 195.04 141.244 195.04 142.483C195.04 143.721 198.836 144.726 203.519 144.726Z" fill="#DCD9FF"/>
<path d="M210.165 141.726C205.747 144.007 201.47 144.007 197.334 141.726V138.137H210.165V141.726Z" fill="white"/>
<path d="M203.749 139.931C207.293 139.931 210.165 139.128 210.165 138.137C210.165 137.146 207.293 136.343 203.749 136.343C200.206 136.343 197.334 137.146 197.334 138.137C197.334 139.128 200.206 139.931 203.749 139.931Z" fill="white"/>
<path d="M204.055 138.137C204.392 138.137 204.666 138.037 204.666 137.913C204.666 137.789 204.392 137.689 204.055 137.689C203.717 137.689 203.444 137.789 203.444 137.913C203.444 138.037 203.717 138.137 204.055 138.137Z" fill="#FFFAFA"/>
<path d="M206.94 138.137C207.277 138.137 207.551 138.037 207.551 137.913C207.551 137.789 207.277 137.689 206.94 137.689C206.603 137.689 206.329 137.789 206.329 137.913C206.329 138.037 206.603 138.137 206.94 138.137Z" fill="#FFFAFA"/>
<path d="M205.497 138.667C205.835 138.667 206.108 138.566 206.108 138.442C206.108 138.319 205.835 138.218 205.497 138.218C205.16 138.218 204.886 138.319 204.886 138.442C204.886 138.566 205.16 138.667 205.497 138.667Z" fill="#FFFAFA"/>
<path d="M199.727 138.667C200.065 138.667 200.338 138.566 200.338 138.442C200.338 138.319 200.065 138.218 199.727 138.218C199.39 138.218 199.116 138.319 199.116 138.442C199.116 138.566 199.39 138.667 199.727 138.667Z" fill="#FFFAFA"/>
<path d="M201.17 138.137C201.507 138.137 201.781 138.037 201.781 137.913C201.781 137.789 201.507 137.689 201.17 137.689C200.832 137.689 200.559 137.789 200.559 137.913C200.559 138.037 200.832 138.137 201.17 138.137Z" fill="#FFFAFA"/>
<path d="M202.612 138.931C202.95 138.931 203.223 138.831 203.223 138.707C203.223 138.583 202.95 138.483 202.612 138.483C202.275 138.483 202.001 138.583 202.001 138.707C202.001 138.831 202.275 138.931 202.612 138.931Z" fill="#FFFAFA"/>
</svg>
